# xmcd CD database file
# Copyright (C) 1997 Ti Kan
# 
# Track frame offsets:
#     150
#     21640
#     41145
#     42465
#     60767
#     86147
#     136420
#     154637
#     187427
#     227645
#     273837
#     288650
# 
# Disc length: 4302 seconds
# 
# Revision: 1
# Processed by: cddbd v1.4b41PL1 Copyright (c) Steve Scherf et al.
# Submitted via: DiscPlay 4.0.3
# 
DISCID=b110cc0c
DTITLE=Popa Chubby - Hit The High Hard One (Live)
DYEAR=1900
DGENRE=
TTITLE0=Heart Attack and Vine
TTITLE1=Trail of Tears
TTITLE2=Size 13
TTITLE3=What's So Great About Rock and Roll
TTITLE4=Stoop Down Baby
TTITLE5=Long Distance Pain
TTITLE6=Caffeine And Nicotine
TTITLE7=Isis
TTITLE8=Sweet Goddes of Love and Beer
TTITLE9=San Catri
TTITLE10=Wild Thing
TTITLE11=Trail of Tears (extended version)
EXTD=
EXTT0=
EXTT1=
EXTT2=
EXTT3=
EXTT4=
EXTT5=
EXTT6=
EXTT7=
EXTT8=
EXTT9=
EXTT10=
EXTT11=
PLAYORDER=
